<svg xmlns="http://www.w3.org/2000/svg" viewBox="0 0 520 120" fill="black">
  <!-- Symbol: small dot -->
  <circle cx="24" cy="28" r="14"/>
  <!-- Symbol: diagonal pill -->
  <rect x="18" y="10" width="28" height="85" rx="14" transform="rotate(-35 32 52)"/>

  <!-- N -->
  <path d="M148,30 L148,90 L164,90 L164,52 L198,90 L214,90 L214,30 L198,30 L198,68 L164,30 Z"/>

  <!-- O -->
  <path d="M256,30 C229,30 218,47 218,60 C218,73 229,90 256,90 C283,90 294,73 294,60 C294,47 283,30 256,30 Z M256,46 C272,46 278,53 278,60 C278,67 272,74 256,74 C240,74 234,67 234,60 C234,53 240,46 256,46 Z"/>

  <!-- G -->
  <path d="M340,30 C313,30 302,47 302,60 C302,73 313,90 340,90 C358,90 370,81 375,70 L375,58 L345,58 L345,70 L359,70 C355,76 349,74 340,74 C324,74 318,67 318,60 C318,53 324,46 340,46 C350,46 356,50 360,55 L374,47 C368,38 356,30 340,30 Z"/>

  <!-- O -->
  <path d="M424,30 C397,30 386,47 386,60 C386,73 397,90 424,90 C451,90 462,73 462,60 C462,47 451,30 424,30 Z M424,46 C440,46 446,53 446,60 C446,67 440,74 424,74 C408,74 402,67 402,60 C402,53 408,46 424,46 Z"/>
</svg>
